<svg xmlns="http://www.w3.org/2000/svg" viewBox="0 0 1461.21 213.41"><defs><style>.b03c415a-71eb-4fef-80d2-c830b5481b04{fill:#2a6093;}</style></defs><title>bluortenia-logo</title><g id="e004ef64-c71d-48da-bacd-047a1b839278" data-name="Livello 2"><g id="acc4d16c-8638-4485-8a7d-1836894a28ec" data-name="Layer 1"><path class="b03c415a-71eb-4fef-80d2-c830b5481b04" d="M0,209.31V4.09H39.75c51.94,0,63.48,23,64,42.37v2.35c0,23.06-12.77,37.51-37,42.07,24.16,1.41,43.19,7.72,56.63,18.79,15.36,12.65,18.49,27.55,19,35.3a16.79,16.79,0,0,0,.23,4.17l.06.13v.14c-.31,8.84-1.53,19.26-8.28,29.53l-3.23,4.41c-15.43,17.49-44.35,26-88.47,26Zm45.3-4.05c26.79,0,47.33-5.57,61.05-16.54,11.5-9.41,17.33-22.05,17.33-37.57v-3.8a5.55,5.55,0,0,0-.23-2.09l0-.1v-.11c-1.08-15.85-10.63-29.11-27.63-38.36C80.5,98.39,60.09,93.82,38.29,93.82h-19V205.26ZM38.87,89.47c18.57,0,49.72-5.59,49.72-43,0-17.35-8.47-38-48.84-38H19.26v81Z"/><path class="b03c415a-71eb-4fef-80d2-c830b5481b04" d="M.57,208.75V4.66H39.75c33,0,62.57,9.94,63.45,41.81v2.34c0,10.53-2,37.72-42.4,42.4,59.35,1.46,79.53,31,81,53.8,0,2.34,0,3.8.29,4.38-.29,8.48-1.46,19-8.18,29.24L130.68,183c-13.16,14.91-38.89,25.73-88,25.73ZM18.69,90H38.87c38.59,0,50.29-21.35,50.29-43.57,0-30.41-24.85-38.59-49.41-38.59H18.69Zm0,115.78H45.3c28.07,0,48.25-6.14,61.4-16.66,12.87-10.53,17.55-24.27,17.55-38v-3.8A5.73,5.73,0,0,0,124,145c-2.34-34.5-43.57-51.76-85.67-51.76H18.69Z"/><path class="b03c415a-71eb-4fef-80d2-c830b5481b04" d="M161.69,209.31V72.43c0-13.53,0-28.88-2.67-40.47-3-13.07-9.05-19.42-18.4-19.42-7.61,0-17.54,4-29.51,11.89l-.88.58V4.75l.49-.07a90.22,90.22,0,0,1,12.07-.88c18.43,0,32.74,6.07,42.54,18.05,10.17,12.09,15.33,29.82,15.33,52.69V209.31Z"/><path class="b03c415a-71eb-4fef-80d2-c830b5481b04" d="M266.93,210.19c-15.15,0-29-3.88-39.1-10.92-12.65-8.85-19.07-22.09-19.07-39.35V69H228v92.38c0,27.89,21.6,40.37,43,40.37,23,0,47.39-14.46,47.39-41.25V69h19.26V209.31H318.41V182.89C309.2,198.59,287.54,210.19,266.93,210.19Z"/><path class="b03c415a-71eb-4fef-80d2-c830b5481b04" d="M480.37,213.12c-48.92,0-91.46-24.89-111-64.94a91.93,91.93,0,0,1-9.71-41.48C359.63,47.87,413.8,0,480.37,0S601.11,47.87,601.11,106.7C601.11,165.38,547,213.12,480.37,213.12ZM488.85,6.69A114.86,114.86,0,0,0,425.1,26a106.15,106.15,0,0,0-46.5,87.14v2.92a9.26,9.26,0,0,0,.24,3l.05.11v.11c1.18,19.07,7.73,37.62,18.46,52.22a82.46,82.46,0,0,0,46.32,31.48,116,116,0,0,0,28.22,3.78A114.66,114.66,0,0,0,535.83,187a106.15,106.15,0,0,0,41.66-55.3,102.34,102.34,0,0,0,5.24-32V94.13c0-7.42-1.62-19.8-9.31-36.6-11.13-23.82-31-40.53-56.06-47.06C509.15,7.92,499.83,6.69,488.85,6.69Z"/><path class="b03c415a-71eb-4fef-80d2-c830b5481b04" d="M623.08,209.31V66.37h19.26V89.92c7.16-10.43,19.72-22.09,40.08-22.09,15.31,0,26.15,3.41,33.15,10.4a25.57,25.57,0,0,1,6,10.49l.19.72H700.4l-.7-2.77c-2.87-7.46-9.87-11.27-20.79-11.27-17.73,0-36.57,14.46-36.57,41.25v92.66Z"/><path class="b03c415a-71eb-4fef-80d2-c830b5481b04" d="M623.65,66.94h18.13V91.79c8.47-13.16,21.63-23.39,40.64-23.39,17.83,0,27.19,4.68,32.75,10.23A24.68,24.68,0,0,1,721,88.87H700.84l-.59-2.34c-1.46-3.8-5.55-11.7-21.34-11.7-22.51,0-37.13,19.89-37.13,41.82v92.1H623.65Z"/><path class="b03c415a-71eb-4fef-80d2-c830b5481b04" d="M764,209.61c-7.65,0-25.43-2.11-25.43-21.62V76.57H726.88V72.22h11.69V37.43h19V72.22h25.74v4.35H757.54V185.36c0,18.1,6.69,20.19,11.72,20.19a17.94,17.94,0,0,0,4.34-.62l1.1-.25,2.63-1,2,2.41-.27.36C777.93,208,771.6,209.61,764,209.61Z"/><path class="b03c415a-71eb-4fef-80d2-c830b5481b04" d="M739.14,72.79V38H757v34.8h25.73V76H757V185.36c0,17.25,6.14,20.76,12.28,20.76a24.59,24.59,0,0,0,5.55-.88l2.34-.88,1.46,1.76c-.87,1.17-6.72,2.92-14.61,2.92-10.82,0-24.86-3.8-24.86-21V76H727.45V72.79Z"/><path class="b03c415a-71eb-4fef-80d2-c830b5481b04" d="M864.29,210.48c-22.5,0-42-7.22-56.32-20.88a73.52,73.52,0,0,1-22.31-46.2,10,10,0,0,1-.3-3.36v-2.93a74.52,74.52,0,0,1,3.53-22.39,65.4,65.4,0,0,1,25.4-35.23c13.77-9.73,31.76-14.87,52-14.87,8.6,0,30.46,1.43,47.71,14.74,14.66,10.76,22.74,27.75,22.74,47.81v4.1a17,17,0,0,1-.32,4.56l-.13.39H805c3.51,49.59,37,67.28,67.23,67.28,22.36,0,43.59-8.77,55.41-22.89l.3-.36,3.61,2-.39.52a65.22,65.22,0,0,1-10,10C914.43,198.13,895.6,210.48,864.29,210.48Zm52.48-78.61a21.94,21.94,0,0,0,.16-3.53v-7c0-7.68-1.54-22.41-11.85-34.72-10.23-11.5-24-17.34-40.79-17.34h-1.76c-23.12,0-43.8,15.24-52.68,38.81a61.06,61.06,0,0,0-4.64,23.8Z"/><path class="b03c415a-71eb-4fef-80d2-c830b5481b04" d="M785.92,140v-2.93a73.4,73.4,0,0,1,3.51-22.22c7.9-26.9,33.63-49.7,76.9-49.7,14.91,0,33.33,3.8,47.37,14.61C928,90.33,936.21,107,936.21,127.17v4.1a17,17,0,0,1-.29,4.38H804.35c3.21,49.12,36,68.42,67.83,68.42,22.22,0,43.86-8.77,55.85-23.1l2.63,1.46a63.5,63.5,0,0,1-9.94,9.94c-10.24,8.19-29.54,17.55-56.43,17.55-48.25,0-74.86-33-78.07-66.67A8.83,8.83,0,0,1,785.92,140Zm131.29-7.61a15.58,15.58,0,0,0,.29-4.09v-7c0-10.81-2.92-24.26-12-35.08-9.35-10.53-22.8-17.55-41.22-17.55h-1.76c-24.56,0-44.74,16.67-53.21,39.18a62.26,62.26,0,0,0-4.68,24.56Z"/><path class="b03c415a-71eb-4fef-80d2-c830b5481b04" d="M1141.76,213.41c-27,0-46.93-9.14-60.87-27.95-12.12-16.36-18.11-37.88-23.4-56.86-7.78-27.92-14.5-52-37.36-52-18.83,0-41.83,18.63-41.83,40.37v92.37H959V72.22H978.3v21c9.51-15.31,27.64-25.1,46.8-25.1,36,0,45.45,31.86,55.42,65.6,10.9,36.89,22.18,75,69.43,75,18.07,0,51.77-10.15,51.77-29.55,0-12-21.54-19.52-44.34-27.46-29-10.08-61.8-21.51-61.8-45.35,0-29.82,36.71-37.7,56.12-37.7,8.22,0,20.39.63,31.73,3.64,12.91,3.42,21.58,9.09,25.79,16.83l.45.84h-21.59l-.09-.46c-3.17-15.85-27.68-17.08-35.12-17.08-17.87,0-44.46,7.09-44.46,26.62,0,15.3,24.74,24.07,50.94,33.36,28.72,10.18,58.42,20.71,58.42,41.2C1217.77,205,1170,213.41,1141.76,213.41Z"/><path class="b03c415a-71eb-4fef-80d2-c830b5481b04" d="M959.6,72.79h18.13V95.3c9.36-16.67,28.36-26.61,47.37-26.61C1100,68.69,1059,209.33,1150,209.33c17.84,0,52.34-9.94,52.34-30.11,0-27.78-106.14-30.41-106.14-72.81,0-28.07,33.33-37.13,55.55-37.13,17.55,0,47.66,2.92,57,20.17h-20.18c-2.92-14.62-23.39-17.54-35.67-17.54-16.37,0-45,6.43-45,27.19,0,32.75,109.36,36,109.36,74.56,0,31.87-50,39.18-75.44,39.18C1037.67,212.84,1075.39,76,1020.13,76c-20.18,0-42.4,19.59-42.4,40.94v91.81H959.6Z"/><path class="b03c415a-71eb-4fef-80d2-c830b5481b04" d="M1241.49,209.31l-.59-137.67h19.56V209.31Z"/><path class="b03c415a-71eb-4fef-80d2-c830b5481b04" d="M1241.47,72.2h18.42V208.75h-17.83Z"/><path class="b03c415a-71eb-4fef-80d2-c830b5481b04" d="M1459.28,188.58c-12.74,10.3-22.59,15-30.32,15.76-23.52,2.29-26.46-34.28-29.35-64l-.86-20.31h0v-.47c0-1.16,0-2.31,0-3.43,0-1,0-1.89-.08-2.82,0-.11,0-.23,0-.35-.64-16.08-3.72-26.76-9.76-34.11-7.5-9.12-19.87-13.36-38.93-13.36-4.34,0-8,.27-11.75.58-33.91,3.3-37.94,20.28-37.94,20.45v.57h20.93l.08-.47a19.11,19.11,0,0,1,3.67-8.5c4.94-5.69,12.56-8.58,22.67-8.58,30.88,0,33.33,19.5,33.35,49.28-19.6,4.61-35.38,9.23-49.63,14.54-18.92,7.12-50.65,22.2-50.65,43.22a29.36,29.36,0,0,0,3.88,15.5c7.5,12.22,22.53,18.69,43.46,18.69,21.91,0,40.25-10.91,49.07-16.16,1.18-.7,2.16-1.28,3-1.72l0-.05c4.19-3,8.41-6.27,12.65-9.68a53.6,53.6,0,0,0,9.55,12.84c12.46,12.53,29.07,16.23,46.39,14.54a94.33,94.33,0,0,0,12.6-2.16Zm-81.73.34v0c-11.8,7.47-29.9,15.15-46.91,15.15-11.37,0-30.43-3.84-30.43-29.55,0-6.86,3.09-13.5,9.18-19.74,5.24-5.37,12.72-10.47,22.23-15.17,16.13-8,35.83-13.51,49.21-16.13l.48,12.21.4,6.13c1.38,14.21,4.16,27.23,9.29,38C1386.7,183.07,1382.17,186.15,1377.55,188.92Z"/><path class="b03c415a-71eb-4fef-80d2-c830b5481b04" d="M1251.41,37.39a12.9,12.9,0,0,1-11.86-6.94,9.79,9.79,0,0,1-1-4.43c0-6.29,5.79-11.4,12.9-11.4s12.9,5.11,12.9,11.4S1258.52,37.39,1251.41,37.39Zm.91-22.06a12.25,12.25,0,0,0-6.81,2.07,11.34,11.34,0,0,0-5,9.31V27a1.29,1.29,0,0,0,0,.32h0a10.53,10.53,0,0,0,2,5.58,8.77,8.77,0,0,0,5,3.36,12.47,12.47,0,0,0,3,.41,12.28,12.28,0,0,0,6.83-2.11,11.43,11.43,0,0,0,4.45-5.91,11.13,11.13,0,0,0,.56-3.42v-.59a9.38,9.38,0,0,0-1-3.91,9,9,0,0,0-6-5A10.21,10.21,0,0,0,1252.32,15.33Z"/><path class="b03c415a-71eb-4fef-80d2-c830b5481b04" d="M1262.65,25.76a13.29,13.29,0,0,1-2.43,6.88c-2.58,3.08-4.77,4.07-8.76,4.07a14.19,14.19,0,0,1-5.2-.54,10.94,10.94,0,0,1-3.56-2.66c-1.89-2-2.43-4.66-2.43-7.49a11.39,11.39,0,0,1,11.14-11,15.59,15.59,0,0,1,7.8,2.42C1261.85,19.32,1262.65,22.33,1262.65,25.76Z"/><path class="b03c415a-71eb-4fef-80d2-c830b5481b04" d="M480.37,117.94A12.92,12.92,0,0,1,468.51,111a9.83,9.83,0,0,1-1-4.44c0-6.28,5.79-11.4,12.9-11.4s12.9,5.12,12.9,11.4S487.49,117.94,480.37,117.94Zm.91-22A12.24,12.24,0,0,0,474.47,98a11.34,11.34,0,0,0-5,9.31v.31a1.29,1.29,0,0,0,0,.32h0a10.7,10.7,0,0,0,2,5.58,8.83,8.83,0,0,0,4.95,3.37,12.5,12.5,0,0,0,3,.4,12.28,12.28,0,0,0,6.83-2.11,11.39,11.39,0,0,0,4.45-5.91,10.83,10.83,0,0,0,.56-3.42v-.59a9.41,9.41,0,0,0-1-3.91,9,9,0,0,0-6-5A10.23,10.23,0,0,0,481.28,95.89Z"/><path class="b03c415a-71eb-4fef-80d2-c830b5481b04" d="M491.61,106.31a13.26,13.26,0,0,1-2.43,6.88c-2.58,3.08-4.77,4.07-8.76,4.07a14.19,14.19,0,0,1-5.2-.54,10.94,10.94,0,0,1-3.56-2.66c-1.89-2-2.43-4.66-2.43-7.48a11.4,11.4,0,0,1,11.14-11,15.6,15.6,0,0,1,7.8,2.43C490.81,99.87,491.61,102.89,491.61,106.31Z"/></g></g></svg>
